<?xml version="1.0" standalone="no"?>
<!DOCTYPE svg PUBLIC "-//W3C//DTD SVG 20010904//EN"
 "http://www.w3.org/TR/2001/REC-SVG-20010904/DTD/svg10.dtd">
<svg version="1.0" xmlns="http://www.w3.org/2000/svg"
 width="80.000000pt" height="80.000000pt" viewBox="0 0 80.000000 80.000000"
 preserveAspectRatio="xMidYMid meet">
<metadata>
Created by potrace 1.11, written by Peter Selinger 2001-2013
</metadata>
<g transform="translate(0.000000,80.000000) scale(0.100000,-0.100000)"
fill="#000000" stroke="none">
<path d="M516 691 c-10 -11 -41 -25 -69 -31 -69 -15 -128 -42 -161 -75 -73
-73 -49 -157 41 -140 27 5 38 13 49 42 10 22 12 39 6 45 -6 6 -12 -3 -16 -25
-11 -57 -72 -69 -88 -17 -7 22 26 82 59 106 27 20 114 54 139 54 17 0 -69
-193 -112 -251 -80 -110 -212 -152 -299 -95 -46 30 -45 97 1 143 14 14 23 27
20 30 -11 12 -65 -56 -71 -90 -28 -148 216 -177 349 -41 45 46 74 101 110 209
31 94 33 97 69 112 31 14 37 43 9 43 -11 0 -27 -9 -36 -19z"/>
<path d="M479 404 c-74 -22 -129 -99 -101 -140 32 -49 132 -32 132 23 0 11 -6
7 -21 -11 -14 -17 -30 -26 -49 -26 -71 0 -50 83 30 123 36 18 67 25 125 26
l78 2 -35 -48 c-19 -26 -57 -87 -83 -135 -27 -49 -54 -88 -61 -88 -6 0 -25 7
-40 15 -36 19 -75 19 -99 1 -16 -12 -17 -18 -8 -39 16 -35 66 -44 121 -22 36
15 47 15 74 4 51 -21 149 -16 190 9 39 25 48 39 48 82 0 20 -9 36 -32 54 -29
22 -30 26 -12 26 30 0 64 36 64 70 0 20 -8 35 -29 49 -16 12 -34 21 -40 21 -6
0 -11 3 -11 8 0 14 -193 11 -241 -4z m269 -30 c53 -37 5 -104 -75 -104 -53 0
-49 -14 8 -32 47 -13 69 -40 61 -71 -14 -59 -83 -90 -160 -73 -65 15 -65 14
-34 54 16 20 53 77 82 127 75 129 75 129 118 99z m-304 -244 c36 -13 32 -28
-10 -36 -26 -5 -40 -2 -51 9 -31 30 8 48 61 27z"/>
</g>
</svg>
